HIERARCHY
ROOT hip
{
	OFFSET 0.000000 0.000000 0.000000
	CHANNELS 6 Xposition Yposition Zposition Xrotation Zrotation Yrotation 
	JOINT abdomen
	{
		OFFSET 0.000000 3.422050 0.000000
		CHANNELS 3 Xrotation Zrotation Yrotation 
		JOINT chest
		{
			OFFSET 0.000000 8.486693 -0.684411
			CHANNELS 3 Xrotation Zrotation Yrotation 
			JOINT neck
			{
				OFFSET 0.000000 10.266162 -0.273764
				CHANNELS 3 Xrotation Zrotation Yrotation 
				JOINT head
				{
					OFFSET 0.000000 3.148285 0.000000
					CHANNELS 3 Xrotation Zrotation Yrotation 
					End Site
					{
						OFFSET 0.000000 3.148289 0.000000
					}
				}
			}
			JOINT lCollar
			{
				OFFSET 3.422053 6.707223 -0.821293
				CHANNELS 3 Yrotation Zrotation Xrotation 
				JOINT lShldr
				{
					OFFSET 3.285171 0.000000 0.000000
					CHANNELS 3 Zrotation Yrotation Xrotation 
					JOINT lForeArm
					{
						OFFSET 10.129278 0.000000 0.000000
						CHANNELS 3 Yrotation Zrotation Xrotation 
						JOINT lHand
						{
							OFFSET 8.486692 0.000000 0.000000
							CHANNELS 3 Zrotation Yrotation Xrotation 
							End Site
							{
								OFFSET 4.106464 0.000000 0.000000
							}
						}
					}
				}
			}
			JOINT rCollar
			{
				OFFSET -3.558935 6.707223 -0.821293
				CHANNELS 3 Yrotation Zrotation Xrotation 
				JOINT rShldr
				{
					OFFSET -3.148289 0.000000 0.000000
					CHANNELS 3 Zrotation Yrotation Xrotation 
					JOINT rForeArm
					{
						OFFSET -10.266159 0.000000 0.000000
						CHANNELS 3 Yrotation Zrotation Xrotation 
						JOINT rHand
						{
							OFFSET -8.349810 0.000000 0.000000
							CHANNELS 3 Zrotation Yrotation Xrotation 
							End Site
							{
								OFFSET -4.106464 0.000000 0.000000
							}
						}
					}
				}
			}
		}
	}
	JOINT lThigh
	{
		OFFSET 5.338403 -1.642589 1.368821
		CHANNELS 3 Xrotation Zrotation Yrotation 
		JOINT lShin
		{
			OFFSET -2.053232 -20.121670 0.000000
			CHANNELS 3 Xrotation Zrotation Yrotation 
			JOINT lFoot
			{
				OFFSET 0.000000 -19.300380 -1.231939
				CHANNELS 3 Xrotation Yrotation Zrotation 
				End Site
				{
					OFFSET 0.000000 -2.463878 4.653993
				}
			}
		}
	}
	JOINT rThigh
	{
		OFFSET -5.338403 -1.642589 1.368821
		CHANNELS 3 Xrotation Zrotation Yrotation 
		JOINT rShin
		{
			OFFSET 2.053232 -20.121670 0.000000
			CHANNELS 3 Xrotation Zrotation Yrotation 
			JOINT rFoot
			{
				OFFSET 0.000000 -19.300380 -1.231939
				CHANNELS 3 Xrotation Yrotation Zrotation 
				End Site
				{
					OFFSET 0.000000 -2.463878 4.653993
				}
			}
		}
	}
}
MOTION
Frames: 11
Frame Time: 0.049989
-0.309380 17.654495 -15.823095 -35.665020 -0.004994 -179.998398 -8.925571 -0.479754 -0.213465 -0.812264 0.517510 0.932090 30.318022 0.000000 0.000000 5.860469 14.665878 -0.019933 -30.230459 -33.661114 11.051810 -41.051746 -19.653757 -7.326284 -32.505806 5.342595 -1.005084 -15.637135 -4.849540 0.080835 28.178068 32.706253 12.065383 40.242268 19.267906 -7.649847 31.943150 -5.428778 -1.063182 17.004601 6.711606 -0.601195 -68.285110 48.357487 21.593164 128.385895 44.167622 -9.428102 51.688831 -6.665282 -25.318853 -68.270653 -48.352257 -21.606386 128.385544 -44.165661 9.423114 51.675354 6.676941 25.319878 
-0.309380 17.717775 -15.687326 -35.331528 -0.004999 -179.998413 -8.059719 -0.479675 -0.213552 0.716394 0.517541 0.932049 29.635874 0.000000 0.000000 5.724217 14.333762 -0.036194 -30.308769 -31.982519 9.865749 -41.820316 -19.845366 -7.002268 -33.404213 5.134744 -0.938002 -15.018835 -4.504326 0.050753 28.419952 31.112625 10.775993 41.065159 19.490778 -7.307557 32.881618 -5.215771 -0.990285 16.289309 6.230233 -0.597249 -68.601776 48.220890 21.372952 128.385895 44.167622 -9.428102 52.128170 -6.652280 -25.333935 -68.588356 -48.216457 -21.385315 128.385544 -44.165661 9.423114 52.115723 6.662777 25.334721 
-0.309380 17.781054 -15.551557 -34.998001 -0.005003 -179.998428 -7.193316 -0.479594 -0.213638 2.248070 0.517573 0.932009 28.952736 0.000000 0.000000 5.588210 14.001483 -0.051623 -30.345524 -30.297043 8.699126 -42.591312 -20.032953 -6.675005 -34.302731 4.925725 -0.874177 -14.400743 -4.158666 0.024412 28.617254 29.509487 9.511005 41.891018 19.709105 -6.961239 33.820217 -5.001437 -0.920871 15.574157 5.748643 -0.587260 -68.916786 48.083458 21.154438 128.385895 44.167622 -9.428102 52.567593 -6.639392 -25.349131 -68.904434 -48.079830 -21.165947 128.385544 -44.165661 9.423114 52.556171 6.648726 25.349686 
-0.309380 17.844334 -15.415788 -34.664471 -0.005008 -179.998444 -6.326469 -0.479513 -0.213723 3.782224 0.517606 0.931969 28.268660 0.000000 0.000000 5.452435 13.669041 -0.066224 -30.342508 -28.606409 7.549680 -43.364658 -20.216452 -6.344565 -35.201260 4.715612 -0.813634 -13.782855 -3.812623 0.001813 28.771832 27.898607 8.268167 42.719761 19.922783 -6.610978 34.758854 -4.785864 -0.854972 14.859141 5.266971 -0.571233 -69.230225 47.945236 20.937634 128.385895 44.167622 -9.428102 53.007042 -6.626617 -25.364418 -69.218933 -47.942406 -20.948275 128.385544 -44.165661 9.423114 52.996647 6.634787 25.364748 
-0.309380 17.907612 -15.280018 -34.330910 -0.005013 -179.998444 -5.459275 -0.479430 -0.213806 5.318311 0.517641 0.931930 27.583691 0.000000 0.000000 5.316891 13.336451 -0.080000 -30.301384 -26.912376 6.415329 -44.140251 -20.395786 -6.011021 -36.099693 4.504483 -0.756397 -13.165182 -3.466265 -0.017041 28.885389 26.281727 7.045353 43.551300 20.131748 -6.256869 35.697426 -4.569140 -0.792615 14.144233 4.785342 -0.549177 -69.542030 47.806221 20.722532 128.385895 44.167622 -9.428102 53.446556 -6.613959 -25.379812 -69.531799 -47.804173 -20.732302 128.385544 -44.165661 9.423114 53.437176 6.620962 25.379930 
-0.309380 17.970892 -15.144248 -33.997337 -0.005017 -179.998459 -4.591831 -0.479346 -0.213888 6.855783 0.517676 0.931893 26.897882 0.000000 0.000000 5.181566 13.003715 -0.092954 -30.223635 -25.216663 5.294132 -44.918007 -20.570902 -5.674458 -36.997963 4.292418 -0.702485 -12.547715 -3.119658 -0.032152 28.959534 24.660601 5.840584 44.385506 20.335901 -5.899000 36.635792 -4.351348 -0.733825 13.429412 4.303888 -0.521103 -69.852226 47.666412 20.509123 128.385895 44.167622 -9.428102 53.886078 -6.601418 -25.395298 -69.843079 -47.665165 -20.518034 128.385544 -44.165661 9.423114 53.877731 6.607253 25.395210 
-0.309380 18.034170 -15.008479 -33.663769 -0.005022 -179.998474 -3.724238 -0.479261 -0.213969 8.394084 0.517712 0.931856 26.211281 0.000000 0.000000 5.046457 12.670853 -0.105088 -30.110626 -23.520994 4.184284 -45.697853 -20.741745 -5.334959 -37.895958 4.079495 -0.651919 -11.930463 -2.772869 -0.043518 28.995722 23.036943 4.651994 45.222286 20.535173 -5.537475 37.573879 -4.132581 -0.678625 12.714661 3.822739 -0.487022 -70.160843 47.525837 20.297407 128.385895 44.167622 -9.428102 54.325603 -6.588992 -25.410875 -70.152771 -47.525368 -20.305445 128.385544 -44.165661 9.423114 54.318287 6.593658 25.410595 
-0.309380 18.097450 -14.872709 -33.330200 -0.005026 -179.998489 -2.856595 -0.479174 -0.214049 9.932663 0.517750 0.931820 25.523937 0.000000 0.000000 4.911552 12.337861 -0.116407 -29.963596 -21.827078 3.084115 -46.479660 -20.908243 -4.992605 -38.793587 3.865794 -0.604713 -11.313426 -2.425965 -0.051141 28.995300 21.412453 3.477836 46.061520 20.729477 -5.172389 38.511566 -3.912926 -0.627033 11.999956 3.342023 -0.446947 -70.467873 47.384499 20.087376 128.385895 44.167622 -9.428102 54.765144 -6.576687 -25.426556 -70.460876 -47.384808 -20.094543 128.385544 -44.165661 9.423114 54.758842 6.580184 25.426094 
-0.309380 18.160728 -14.736940 -32.996639 -0.005030 -179.998505 -1.989002 -0.479086 -0.214127 11.470963 0.517788 0.931785 24.835890 0.000000 0.000000 4.776848 12.004755 -0.126912 -29.783689 -20.136616 1.992064 -47.263348 -21.070353 -4.647487 -39.690758 3.651396 -0.560883 -10.696604 -2.079012 -0.055024 28.959538 19.788803 2.316466 46.903076 20.918730 -4.803844 39.448757 -3.692475 -0.579066 11.285281 2.861872 -0.400892 -70.773285 47.242390 19.879021 128.385895 44.167622 -9.428102 55.204674 -6.564504 -25.442335 -70.767365 -47.243462 -19.885315 128.385544 -44.165661 9.423114 55.199390 6.566828 25.441692 
-0.309380 18.224009 -14.601171 -32.663090 -0.005034 -179.998535 -1.121559 -0.478997 -0.214204 13.008432 0.517827 0.931752 24.147194 0.000000 0.000000 4.642336 11.671539 -0.136608 -29.571913 -18.451277 0.906681 -48.048828 -21.228014 -4.299696 -40.587391 3.436381 -0.520438 -10.080002 -1.732077 -0.055169 28.889570 18.167645 1.166339 47.746857 21.102879 -4.431958 40.385330 -3.471316 -0.534739 10.570618 2.382413 -0.348873 -71.077141 47.099556 19.672363 128.385895 44.167622 -9.428102 55.644165 -6.552439 -25.458200 -71.072289 -47.101379 -19.677763 128.385544 -44.165661 9.423114 55.639912 6.553593 25.457394 
-0.309380 18.287287 -14.465401 -32.329552 -0.005038 -179.998550 -0.254364 -0.478907 -0.214280 14.544522 0.517867 0.931719 23.457891 0.000000 0.000000 4.508008 11.338225 -0.145496 -29.329208 -16.772705 -0.173389 -48.835968 -21.381174 -3.949322 -41.483379 3.220830 -0.483389 -9.463618 -1.385226 -0.051580 28.786470 16.550602 0.026011 48.592724 21.281839 -4.056840 41.321182 -3.249542 -0.494062 9.855945 1.903776 -0.290909 -71.379410 46.955971 19.467360 128.385895 44.167622 -9.428102 56.083618 -6.540497 -25.474157 -71.375618 -46.958546 -19.471880 128.385544 -44.165661 9.423114 56.080387 6.540477 25.473192 
